<svg xmlns="http://www.w3.org/2000/svg" x="0px" y="0px"
width="50" height="50"
viewBox="0 0 172 172"
style=" fill:#000000;"><g fill="none" fill-rule="nonzero" stroke="none" stroke-width="1" stroke-linecap="butt" stroke-linejoin="miter" stroke-miterlimit="10" stroke-dasharray="" stroke-dashoffset="0" font-family="none" font-weight="none" font-size="none" text-anchor="none" style="mix-blend-mode: normal"><path d="M0,172v-172h172v172z" fill="none"></path><g fill="#1abc9c"><path d="M38.87469,17.2c-1.72,0 -3.09062,1.03469 -3.44,2.75469l-31.99469,127.28c-0.34937,1.03469 0,2.05594 0.68531,3.09063c0.68531,1.03469 1.72,1.03469 2.75469,1.03469h17.88531c1.72,0 3.09062,-1.03469 3.44,-2.75469l6.53062,-31.64531h33.72813l6.53062,31.64531c0.34938,1.72 1.72,2.75469 3.44,2.75469h17.88531c1.03469,0 2.06938,-0.34937 2.75469,-1.38406c0.68531,-1.02125 1.03469,-2.05594 0.68531,-3.09062l-32.34406,-127.28c-0.33594,-1.37063 -1.72,-2.40531 -3.44,-2.40531zM51.6,39.56l12.72531,56.76h-25.45063zM140.70406,68.8c-11.01875,0 -23.39469,4.12531 -32.68,11.00531c-0.69875,0.68531 -1.38406,1.38406 -1.38406,2.41875c0,1.02125 0.34938,2.05594 1.03469,2.74125l6.88,6.88c0.68531,0.68531 1.37063,1.03469 2.40531,1.03469c0.68531,0 1.03469,0 1.38406,-0.33594c3.77594,-1.72 14.09594,-6.54406 19.25594,-6.54406c4.81063,0 8.25063,1.03469 10.32,3.10406c2.06938,2.05594 3.09063,5.49594 3.44,10.99187h-3.44c-16.85062,0 -35.08531,1.38406 -40.94406,12.04c-4.46125,7.91469 -4.46125,17.54938 0.34938,25.8c5.16,8.6 14.44531,13.76 25.8,13.76c5.84531,0 12.04,-1.37062 18.23469,-3.77594c0,1.03469 0.34938,1.72 1.03469,2.40531c0.68531,0.68531 1.37063,1.03469 2.40531,1.03469h10.32c1.72,0 3.44,-1.72 3.44,-3.44v-41.61594c0,-10.32 0,-25.81344 -11.70406,-33.37875c-4.12531,-2.75469 -9.62125,-4.12531 -16.15187,-4.12531zM117.48406,77.99125c-0.14781,0.08063 -0.29563,0.16125 -0.44344,0.22844c0.14781,-0.06719 0.29562,-0.14781 0.44344,-0.22844zM114.93094,79.37531c-1.53187,0.90031 -3.02344,1.85437 -4.44781,2.9025c-0.01344,-0.01344 -0.05375,-0.05375 -0.06719,-0.05375c1.42438,-1.03469 2.95625,-1.96188 4.515,-2.84875zM148.25594,102.86406h6.53063c0,0.1075 0.01344,0.215 0.01344,0.33594c-2.41875,0.1075 -6.89344,-0.17469 -12.04,-0.26875c1.94844,-0.05375 3.81625,-0.06719 5.49594,-0.06719zM141.04,116.96h10.32c0,17.2 -30.96,23.74406 -30.96,9.63469c0,-6.88 6.53063,-9.63469 20.64,-9.63469z"></path></g></g></svg>