<svg xmlns="http://www.w3.org/2000/svg" x="0px" y="0px"
width="50" height="50"
viewBox="0 0 172 172"
style=" fill:#000000;"><g fill="none" fill-rule="nonzero" stroke="none" stroke-width="1" stroke-linecap="butt" stroke-linejoin="miter" stroke-miterlimit="10" stroke-dasharray="" stroke-dashoffset="0" font-family="none" font-weight="none" font-size="none" text-anchor="none" style="mix-blend-mode: normal"><path d="M0,172v-172h172v172z" fill="none"></path><g fill="#1abc9c"><path d="M86,10.27969v0.18141c-6.05933,0.21404 -11.90337,0.56868 -13.6861,0.78609c-0.00333,0.00041 -0.01686,-0.0004 -0.02015,0c-0.19134,-0.00023 -0.38237,0.0155 -0.5711,0.04703c-0.00448,-0.00001 -0.00896,-0.00001 -0.01344,0c-0.10716,0.01663 -0.20234,0.04342 -0.30906,0.06047c-1.80602,0.28848 -3.55489,0.6419 -5.25406,1.04813c-0.46449,0.11167 -0.90208,0.24937 -1.35719,0.36953c-1.32459,0.3477 -2.6257,0.72 -3.88344,1.14219c-0.47494,0.16003 -0.93381,0.33404 -1.3975,0.50391c-1.1864,0.43344 -2.34209,0.90141 -3.46687,1.40422c-0.44684,0.19954 -0.8883,0.40216 -1.3236,0.61141c-0.97911,0.4719 -1.93164,0.97119 -2.86219,1.49828c-0.57247,0.32234 -1.14259,0.6476 -1.69313,0.98766c-0.64703,0.4029 -1.27259,0.83162 -1.89469,1.26313c-0.73464,0.50454 -1.47064,1.00844 -2.16344,1.54531c-0.2504,0.1964 -0.48637,0.40988 -0.73235,0.61141c-3.285,2.65814 -6.13176,5.64652 -8.48578,8.95609c-3.80391,5.34801 -6.41221,11.38821 -8.25734,17.77781c-0.40312,1.39597 -0.77761,2.80556 -1.10859,4.23281c-0.1976,0.82108 -0.37945,1.66089 -0.55766,2.50609c-0.07972,0.39327 -0.15338,0.78751 -0.22844,1.1825c-0.55347,2.79927 -1.04336,5.68271 -1.39078,8.7411l-13.84734,23.865l-0.01344,0.02688c-0.29641,0.5334 -0.53502,1.08749 -0.71219,1.65281c-0.94247,2.87461 -0.37136,5.93355 1.47141,8.25735c0.11247,0.14183 0.25435,0.26705 0.37625,0.40312c0.64934,0.74515 1.40324,1.41027 2.31125,1.91485l0.06719,0.0336l0.05375,0.02687c0.00724,0.00405 0.0129,0.0094 0.02016,0.01344l5.20703,2.60016l5.23391,2.62031l3.38625,24.7989l0.00672,0.04031c0.18442,1.15279 0.47271,2.27203 0.85328,3.34594c2.66992,7.64551 9.87912,12.86844 17.93906,12.53047l10.7836,0.00672v10.32672v3.44h0.00672h2.84875c0.38026,0.0644 0.76864,0.0644 1.1489,0h2.87563h55.04h0.00672h2.85547c0.37149,0.0614 0.75054,0.0614 1.12203,0h2.89578h0.00672l0.06047,-22.0375c0,-2.42697 0.1874,-4.87257 0.5711,-7.31c0.02693,-0.15935 0.05872,-0.31801 0.08735,-0.47703c0.1293,-0.77013 0.29535,-1.53668 0.46359,-2.30453c1.16162,-4.98541 3.1293,-9.78914 5.73781,-14.31094c0.13658,-0.23498 0.24484,-0.48532 0.3225,-0.74578c0.75936,-1.24231 1.57555,-2.46851 2.45906,-3.66844c1.24624,-1.69418 2.78731,-4.55486 4.34031,-7.62578h8.3111c6.60889,0 12.04,-5.43111 12.04,-12.04v-80.84zM92.88,17.15969h61.92v73.96c0,2.89239 -2.26761,5.16 -5.16,5.16v-0.00672c-2.84488,0.00344 -5.16,-2.3084 -5.16,-5.15328c0,-2.23944 1.44136,-4.13214 3.44,-4.84422v-7.02781v-0.16797h-55.04zM130.72,30.91969l4.44781,4.44781l-7.88781,7.88781l-10.32,-10.32l-12.75219,12.75219l4.86437,4.86437l7.88781,-7.88781l10.32,10.32l12.75219,-12.75219l4.44781,4.44781v-13.76zM103.2,61.87969v6.88h41.28v-6.88zM87.72,85.95969h51.10281c-0.75623,1.56584 -1.22281,3.29663 -1.22281,5.15328c0,1.85577 0.45635,3.59536 1.20937,5.16672h-51.08937c-2.89073,0 -5.16,-2.27239 -5.16,-5.16c0,-2.89073 2.2724,-5.16 5.16,-5.16z"></path></g></g></svg>