<svg xmlns="http://www.w3.org/2000/svg" x="0px" y="0px" width="50" height="50" viewBox="0 0 172 172" style=" fill:#000000;">
    <g fill="none" fill-rule="nonzero" stroke="none" stroke-width="1" stroke-linecap="butt" stroke-linejoin="miter" stroke-miterlimit="10" stroke-dasharray="" stroke-dashoffset="0" font-family="none" font-weight="none" font-size="none" text-anchor="none" style="mix-blend-mode: normal">
        <path d="M0,172v-172h172v172z" fill="none"></path>
        <g fill="#000000">
            <path d="M86,10.32c-32.25,0 -58.48,26.23 -58.48,58.48c0,33.24438 53.62906,93.6325 55.91344,96.18563c0.645,0.72562 1.58563,1.14219 2.56656,1.14219c0.98094,0 1.90813,-0.41656 2.56656,-1.14219c2.27094,-2.53969 55.91344,-62.72625 55.91344,-96.18563c0,-32.25 -26.23,-58.48 -58.48,-58.48zM58.25156,89.06375l-5.54969,4.07156c-5.22719,-7.13531 -7.98188,-15.54719 -7.98188,-24.33531c0,-8.78812 2.75469,-17.2 7.98188,-24.33531l5.54969,4.07156c-4.35375,5.93938 -6.65156,12.95375 -6.65156,20.26375c0,7.31 2.29781,14.32438 6.65156,20.26375zM86,79.12c-5.6975,0 -10.32,-4.6225 -10.32,-10.32c0,-5.6975 4.6225,-10.32 10.32,-10.32c5.6975,0 10.32,4.6225 10.32,10.32c0,5.6975 -4.6225,10.32 -10.32,10.32zM119.29813,93.13531l-5.54969,-4.07156c4.35375,-5.93937 6.65156,-12.95375 6.65156,-20.26375c0,-7.31 -2.29781,-14.32437 -6.65156,-20.26375l5.54969,-4.07156c5.21375,7.13531 7.98187,15.54719 7.98187,24.33531c0,8.78813 -2.76812,17.2 -7.98187,24.33531z"></path>
        </g>
    </g>
</svg>