<svg xmlns="http://www.w3.org/2000/svg" x="0px" y="0px"
width="50" height="50"
viewBox="0 0 172 172"
style=" fill:#000000;"><g transform=""><g fill="none" fill-rule="nonzero" stroke="none" stroke-width="1" stroke-linecap="butt" stroke-linejoin="miter" stroke-miterlimit="10" stroke-dasharray="" stroke-dashoffset="0" font-family="none" font-weight="none" font-size="none" text-anchor="none" style="mix-blend-mode: normal"><path d="M0,172v-172h172v172z" fill="none"></path><g fill="#1abc9c"><path d="M29.37438,30.96l-23.56938,27.50656l19.40375,22.95125c0.71219,0.94062 1.57219,1.935 2.71438,3.18469l58.07687,68.63875l2.63375,-3.10406l77.56125,-91.67062l-22.36,-26.08219c-0.14781,-0.22844 -0.3225,-0.44344 -0.5375,-0.61813l-0.68531,-0.80625zM32.54563,37.84h12.67156c-8.72094,5.28094 -18.62437,14.24375 -23.30062,29.025l-7.08156,-8.37156zM86,37.84c26.83469,-0.68531 30.61063,16.51469 30.96,17.88531c0.34938,2.06937 2.40531,3.44 4.12531,2.75469h19.95469c2.06938,0 3.44,-1.37062 3.44,-3.44v-11.34125l12.685,14.79469l-14.00187,16.54156c-5.96625,-13.80031 -31.16156,-13.80031 -53.72313,-13.80031c-21.32531,0 -34.4,-0.34937 -34.4,-6.88c0,0.68531 0.68531,-15.82937 30.96,-16.51469zM112.00156,37.84h12.60437c-1.63937,2.83531 -3.27875,5.72438 -4.54187,8.26406c-1.76031,-2.71438 -4.36719,-5.67063 -8.0625,-8.26406zM41.925,90.50156c13.53156,2.365 35.91844,2.37844 68.155,2.37844c4.12531,0 7.22938,1.03469 8.6,2.75469c1.03469,1.72 0.68531,3.78938 0.33594,5.50938c-1.37062,4.12531 -6.18125,9.62125 -13.41062,12.71187c-6.19469,2.41875 -14.44531,3.10406 -19.26938,3.10406h-0.67187c-1.38406,-7.22937 -6.54406,-17.2 -20.30406,-17.2c-6.65156,0 -10.89781,1.38406 -13.38375,2.63375zM104.26156,121.01813l-18.26156,21.58062l-17.49562,-20.68031c3.56094,0.72563 8.04906,1.42438 13.37031,1.58563h2.74125c3.82969,0 12.1475,-0.26875 19.64563,-2.48594z"></path></g><path d="" fill="none"></path><path d="" fill="none"></path></g></g></svg>