<svg xmlns="http://www.w3.org/2000/svg" x="0px" y="0px" width="50" height="50" viewBox="0 0 172 172" style=" fill:#000000;">
    <g fill="none" fill-rule="nonzero" stroke="none" stroke-width="1" stroke-linecap="butt" stroke-linejoin="miter" stroke-miterlimit="10" stroke-dasharray="" stroke-dashoffset="0" font-family="none" font-weight="none" font-size="none" text-anchor="none" style="mix-blend-mode: normal">
        <path d="M0,172v-172h172v172z" fill="none"></path>
        <g fill="#1abc9c">
            <path d="M171.65063,114.67563c-0.88688,-2.71438 -3.34594,-4.59563 -6.19469,-4.73l-25.89406,-1.26313l-1.96188,-5.09281v-53.36031l-50.22937,-50.22938h-73.61063v165.12h77.615c-0.1075,2.28438 0.84656,4.515 2.75469,5.9125c1.20938,0.87344 2.63375,1.31688 4.05813,1.31688c1.29,0 2.58,-0.36281 3.72219,-1.08844l21.93,-14.12281l21.93,14.10937c1.12875,0.73906 2.43219,1.10188 3.72219,1.10188c1.42438,0 2.84875,-0.44344 4.05813,-1.33031c2.29781,-1.67969 3.3325,-4.59563 2.59344,-7.35031l-6.79937,-25.16844l20.11594,-16.35344c2.20375,-1.80063 3.07719,-4.77031 2.19031,-7.47125zM86,8.25063l43.34938,43.34937h-43.34938zM141.53719,135.97406l7.955,29.49531l-25.65219,-16.51469l-22.80344,14.67375l-0.81969,1.49156h-1.49156l-0.5375,0.34938l0.09406,-0.34938l7.86094,-29.14594l-23.58281,-19.16188l30.36875,-1.47812l10.91125,-28.29938l10.91125,28.29938l2.84875,0.13437l27.52,1.34375z"></path>
        </g>
    </g>
</svg>